# xmcd
#
# Track frame offsets:
#	150
#	21862
#	37657
#	56057
#	78657
#	98822
#	121152
#	141490
#	162047
#	179375
#	194655
#
# Disc length: 2892 seconds
#
# Revision: 1
# Processed by: cddbd v1.5.1PL0 Copyright (c) Steve Scherf et al.
# Submitted via: CDex 1.50Beta5
#
DISCID=910b4a0b
DTITLE=TPD DASH!! - (Just)FINE
DYEAR=1994
DGENRE=Pop
TTITLE0=もう誰も眠れない
TTITLE1=(Love is)YES or NO,Boy
TTITLE2=愛のサンバ
TTITLE3=太陽の陰
TTITLE4=炎のように風のように
TTITLE5=クラクション
TTITLE6=SHAKE IT
TTITLE7=クリームソーダ
TTITLE8=あなたはデブでもいい人だから
TTITLE9=FIRE
TTITLE10=空に太陽がある限り
EXTD=
EXTT0=
EXTT1=
EXTT2=
EXTT3=
EXTT4=
EXTT5=
EXTT6=
EXTT7=
EXTT8=
EXTT9=
EXTT10=
PLAYORDER=
